<svg width="25" height="25" aria-hidden="true" focusable="false" data-prefix="fal" data-icon="stream" class="svg-inline--fa fa-stream fa-w-16" role="img" xmlns="http://www.w3.org/2000/svg" viewBox="0 0 512 512"><path fill="currentColor" d="M8 128h432c4.42 0 8-3.58 8-8v-16c0-4.42-3.58-8-8-8H8c-4.42 0-8 3.58-8 8v16c0 4.42 3.58 8 8 8zm496 112H72c-4.42 0-8 3.58-8 8v16c0 4.42 3.58 8 8 8h432c4.42 0 8-3.58 8-8v-16c0-4.42-3.58-8-8-8zm-64 144H8c-4.42 0-8 3.58-8 8v16c0 4.42 3.58 8 8 8h432c4.42 0 8-3.58 8-8v-16c0-4.42-3.58-8-8-8z"></path></svg>